<svg width="25" height="24" viewBox="0 0 25 24" fill="none" xmlns="http://www.w3.org/2000/svg">
<path fill-rule="evenodd" clip-rule="evenodd" d="M12.1953 0C5.5679 0 0.195312 5.37258 0.195312 12C0.195312 18.6274 5.5679 24 12.1953 24C18.8227 24 24.1953 18.6274 24.1953 12C24.1953 5.37258 18.8227 0 12.1953 0ZM12.3174 6H12.318C12.6025 6 13.171 6.03986 13.7809 6.30664C14.1313 6.46011 14.4464 6.66773 14.7177 6.92386C15.0412 7.22951 15.3046 7.60651 15.5007 8.04486C15.7869 8.68487 15.7187 9.76293 15.6639 10.6292L15.6617 10.6658L15.6596 10.6986C15.655 10.7724 15.6506 10.8438 15.6465 10.9134C15.6837 10.9303 15.7411 10.948 15.823 10.9522C15.9769 10.9449 16.1562 10.8938 16.3564 10.8004C16.4499 10.7569 16.5487 10.7477 16.6154 10.7477C16.7134 10.7477 16.8097 10.7661 16.894 10.8009C17.1439 10.89 17.301 11.0721 17.305 11.277C17.3066 11.3616 17.281 11.491 17.1495 11.6261C17.0394 11.7393 16.8725 11.8391 16.639 11.9311C16.5851 11.9523 16.5204 11.9728 16.4517 11.9944C16.2145 12.0694 15.856 12.1829 15.7627 12.4022C15.7153 12.5137 15.7355 12.66 15.8229 12.8371C15.8254 12.8419 15.8277 12.8467 15.8297 12.8516C15.8616 12.9261 16.6325 14.6792 18.3437 14.9604C18.495 14.9852 18.6031 15.1198 18.5944 15.2721C18.592 15.3171 18.5812 15.3612 18.5628 15.4037C18.5013 15.5457 18.3597 15.6667 18.1298 15.7731C17.8482 15.9034 17.4272 16.0129 16.8779 16.0989C16.8504 16.1518 16.8208 16.2864 16.8021 16.3713L16.8018 16.3728C16.7804 16.4706 16.7587 16.5672 16.7283 16.67C16.6825 16.8263 16.5627 16.9155 16.3996 16.9155H16.3921L16.3849 16.9154C16.3109 16.9154 16.2146 16.9037 16.0906 16.8793C15.9006 16.8424 15.6878 16.8082 15.419 16.8082C15.263 16.8082 15.1013 16.822 14.9387 16.8489C14.6253 16.9009 14.3552 17.091 14.0424 17.3112L14.0422 17.3114L14.0414 17.3121L14.0411 17.3123C13.5838 17.6347 13.0657 18 12.2737 18C12.2395 18 12.207 17.999 12.1809 17.9978C12.1595 17.9993 12.1378 18 12.1162 18C11.3243 18 10.806 17.6347 10.3481 17.3119C10.0352 17.0914 9.76486 16.9009 9.45122 16.8489C9.28851 16.8219 9.12686 16.8082 8.97089 16.8082C8.68956 16.8082 8.46416 16.8522 8.29933 16.8845L8.29551 16.8852C8.18457 16.9067 8.08862 16.9252 8.00506 16.9252C7.78204 16.9252 7.69523 16.7892 7.66176 16.6754C7.63075 16.5703 7.60899 16.4715 7.58812 16.3753L7.58697 16.37C7.56709 16.2798 7.53886 16.1516 7.51166 16.1C6.96277 16.0142 6.54162 15.9045 6.26002 15.7741C6.02958 15.6672 5.88783 15.5461 5.8267 15.4035L5.82627 15.4028C5.80832 15.3603 5.79797 15.3165 5.79538 15.2725C5.78696 15.1198 5.89493 14.9855 6.04613 14.9608C6.43115 14.8975 6.79863 14.7544 7.13825 14.5356C7.41649 14.3563 7.67832 14.1254 7.91603 13.8492C8.33436 13.3634 8.5383 12.9028 8.56016 12.8519C8.56197 12.8476 8.56393 12.8435 8.56591 12.8393L8.56682 12.8374C8.6543 12.6604 8.6747 12.5139 8.6273 12.4026C8.53385 12.1833 8.1758 12.0699 7.93878 11.9947L7.93802 11.9945L7.93713 11.9942C7.86916 11.9727 7.805 11.9524 7.7509 11.9312C7.54384 11.8496 7.38342 11.7578 7.27422 11.6583C7.07568 11.4776 7.07485 11.2994 7.09204 11.2092C7.11811 11.0729 7.21411 10.95 7.36269 10.863C7.48078 10.7938 7.61691 10.7559 7.74605 10.7559C7.82643 10.7559 7.89927 10.7709 7.9631 10.8005C8.18001 10.9018 8.37187 10.9533 8.53322 10.9533C8.6335 10.9533 8.70153 10.933 8.7435 10.9138C8.73844 10.8288 8.73296 10.7417 8.72765 10.6575L8.72592 10.6299L8.72572 10.6286L8.7257 10.6283C8.67116 9.76262 8.60331 8.68558 8.88932 8.04611C9.08464 7.60932 9.34709 7.23328 9.66926 6.9283C9.93947 6.67232 10.2535 6.46468 10.6027 6.31111C11.2134 6.04234 11.7819 6.00232 12.0661 6.00232L12.2861 6.00013L12.3174 6Z" fill="white"/>
</svg>
