<svg width="25" height="24" viewBox="0 0 25 24" fill="none" xmlns="http://www.w3.org/2000/svg">
<path fill-rule="evenodd" clip-rule="evenodd" d="M12.293 0C5.66555 0 0.292969 5.37258 0.292969 12C0.292969 18.6274 5.66555 24 12.293 24C18.9204 24 24.293 18.6274 24.293 12C24.293 5.37258 18.9204 0 12.293 0ZM9.65422 5.63828C10.3369 5.60721 10.555 5.59961 12.2932 5.59961H12.2912C14.0299 5.59961 14.2472 5.60721 14.9299 5.63828C15.6112 5.66948 16.0766 5.77734 16.4846 5.93561C16.9059 6.09895 17.2619 6.31762 17.6179 6.67362C17.9739 7.02936 18.1926 7.38643 18.3566 7.80737C18.5139 8.2143 18.6219 8.67937 18.6539 9.36071C18.6846 10.0434 18.6926 10.2615 18.6926 11.9997C18.6926 13.7378 18.6846 13.9554 18.6539 14.6381C18.6219 15.3192 18.5139 15.7844 18.3566 16.1915C18.1926 16.6123 17.9739 16.9693 17.6179 17.3251C17.2623 17.6811 16.9058 17.9003 16.485 18.0637C16.0778 18.222 15.6121 18.3299 14.9308 18.3611C14.2481 18.3921 14.0307 18.3997 12.2924 18.3997C10.5544 18.3997 10.3364 18.3921 9.65368 18.3611C8.97248 18.3299 8.50727 18.222 8.10007 18.0637C7.6794 17.9003 7.32233 17.6811 6.96672 17.3251C6.61085 16.9693 6.39218 16.6123 6.22858 16.1913C6.07045 15.7844 5.96258 15.3193 5.93125 14.638C5.90031 13.9553 5.89258 13.7378 5.89258 11.9997C5.89258 10.2615 5.90058 10.0433 5.93111 9.36058C5.96178 8.67951 6.06978 8.2143 6.22845 7.80723C6.39245 7.38643 6.61112 7.02936 6.96712 6.67362C7.32286 6.31775 7.67993 6.09908 8.10087 5.93561C8.5078 5.77734 8.97288 5.66948 9.65422 5.63828Z" fill="white"/>
<path fill-rule="evenodd" clip-rule="evenodd" d="M11.7195 6.75355C11.8309 6.75338 11.9509 6.75343 12.0803 6.75349L12.2936 6.75355C14.0024 6.75355 14.2049 6.75969 14.8798 6.79035C15.5038 6.81889 15.8424 6.92315 16.068 7.01076C16.3667 7.12676 16.5796 7.26543 16.8035 7.48943C17.0275 7.71343 17.1662 7.92677 17.2824 8.22544C17.37 8.45077 17.4745 8.78944 17.5029 9.41345C17.5335 10.0881 17.5402 10.2908 17.5402 11.9988C17.5402 13.7068 17.5335 13.9095 17.5029 14.5842C17.4743 15.2082 17.37 15.5468 17.2824 15.7722C17.1664 16.0709 17.0275 16.2835 16.8035 16.5074C16.5795 16.7314 16.3668 16.8701 16.068 16.9861C15.8427 17.0741 15.5038 17.1781 14.8798 17.2066C14.2051 17.2373 14.0024 17.2439 12.2936 17.2439C10.5846 17.2439 10.3821 17.2373 9.70744 17.2066C9.08343 17.1778 8.74476 17.0735 8.51902 16.9859C8.22035 16.8699 8.00702 16.7313 7.78302 16.5073C7.55901 16.2833 7.42035 16.0705 7.30408 15.7716C7.21648 15.5463 7.11208 15.2076 7.08368 14.5836C7.05301 13.909 7.04688 13.7063 7.04688 11.9972C7.04688 10.2881 7.05301 10.0865 7.08368 9.41185C7.11221 8.78784 7.21648 8.44917 7.30408 8.22357C7.42008 7.9249 7.55901 7.71156 7.78302 7.48756C8.00702 7.26356 8.22035 7.12489 8.51902 7.00862C8.74463 6.92062 9.08343 6.81662 9.70744 6.78795C10.2978 6.76129 10.5266 6.75329 11.7195 6.75195V6.75355ZM15.7094 7.81667C15.2854 7.81667 14.9414 8.16028 14.9414 8.58441C14.9414 9.00842 15.2854 9.35242 15.7094 9.35242C16.1334 9.35242 16.4774 9.00842 16.4774 8.58441C16.4774 8.16041 16.1334 7.81641 15.7094 7.81641V7.81667ZM9.00781 12.0006C9.00781 10.1855 10.4794 8.71394 12.2944 8.71387C14.1095 8.71387 15.5807 10.1855 15.5807 12.0006C15.5807 13.8157 14.1096 15.2866 12.2945 15.2866C10.4794 15.2866 9.00781 13.8157 9.00781 12.0006Z" fill="white"/>
<path d="M12.2935 9.86719C13.4717 9.86719 14.4269 10.8223 14.4269 12.0005C14.4269 13.1787 13.4717 14.1339 12.2935 14.1339C11.1152 14.1339 10.1602 13.1787 10.1602 12.0005C10.1602 10.8223 11.1152 9.86719 12.2935 9.86719Z" fill="white"/>
</svg>
