<svg width="25" height="24" viewBox="0 0 25 24" fill="none" xmlns="http://www.w3.org/2000/svg">
<circle cx="12.0977" cy="12" r="12" fill="white"/>
<path d="M8.24165 7.26386L15.0363 16.1408L15.154 16.2945L15.3528 16.2899L16.8464 16.2552L17.5552 16.2388L17.1288 15.6953L10.2473 6.92569L10.1405 6.78961L9.96302 6.78045L8.55616 6.70784L7.78561 6.66807L8.24165 7.26386ZM8.24165 7.26386L8.54239 7.0602L8.54239 7.0602L8.24165 7.26386Z" stroke="#5E7F4C" stroke-width="0.726126"/>
<path d="M17.0163 4.59018L18.6699 4.67257L6.79292 19.6213L5.30991 19.1647L17.0163 4.59018Z" fill="#5E7F4C"/>
<rect x="6.23438" y="3" width="13.8647" height="3.4126" fill="white"/>
<rect x="4.09766" y="16.5391" width="14.1865" height="4.59601" fill="white"/>
<path d="M11.3493 10.7165L12.2754 10.0944L13.8835 12.1413L13.0165 12.9045L11.3493 10.7165Z" fill="white"/>
</svg>
