<svg width="25" height="24" viewBox="0 0 25 24" fill="none" xmlns="http://www.w3.org/2000/svg">
<path d="M18.288 10.7496C17.858 10.7496 17.518 10.3996 17.518 9.97961C17.518 9.60961 17.148 8.83961 16.528 8.16961C15.918 7.51961 15.248 7.13961 14.688 7.13961C14.258 7.13961 13.918 6.78961 13.918 6.36961C13.918 5.94961 14.268 5.59961 14.688 5.59961C15.688 5.59961 16.738 6.13961 17.658 7.10961C18.518 8.01961 19.068 9.14961 19.068 9.96961C19.068 10.3996 18.718 10.7496 18.288 10.7496Z" fill="white"/>
<path d="M21.8997 10.75C21.4697 10.75 21.1297 10.4 21.1297 9.98C21.1297 6.43 18.2397 3.55 14.6997 3.55C14.2697 3.55 13.9297 3.2 13.9297 2.78C13.9297 2.36 14.2697 2 14.6897 2C19.0897 2 22.6697 5.58 22.6697 9.98C22.6697 10.4 22.3197 10.75 21.8997 10.75Z" fill="white"/>
<path d="M11.718 14.95L9.86797 16.8C9.47797 17.19 8.85797 17.19 8.45797 16.81C8.34797 16.7 8.23797 16.6 8.12797 16.49C7.09797 15.45 6.16797 14.36 5.33797 13.22C4.51797 12.08 3.85797 10.94 3.37797 9.81C2.90797 8.67 2.66797 7.58 2.66797 6.54C2.66797 5.86 2.78797 5.21 3.02797 4.61C3.26797 4 3.64797 3.44 4.17797 2.94C4.81797 2.31 5.51797 2 6.25797 2C6.53797 2 6.81797 2.06 7.06797 2.18C7.32797 2.3 7.55797 2.48 7.73797 2.74L10.058 6.01C10.238 6.26 10.368 6.49 10.458 6.71C10.548 6.92 10.598 7.13 10.598 7.32C10.598 7.56 10.528 7.8 10.388 8.03C10.258 8.26 10.068 8.5 9.82797 8.74L9.06797 9.53C8.95797 9.64 8.90797 9.77 8.90797 9.93C8.90797 10.01 8.91797 10.08 8.93797 10.16C8.96797 10.24 8.99797 10.3 9.01797 10.36C9.19797 10.69 9.50797 11.12 9.94797 11.64C10.398 12.16 10.878 12.69 11.398 13.22C11.498 13.32 11.608 13.42 11.708 13.52C12.108 13.91 12.118 14.55 11.718 14.95Z" fill="white"/>
<path d="M22.6395 18.3291C22.6395 18.6091 22.5895 18.8991 22.4895 19.1791C22.4595 19.2591 22.4295 19.3391 22.3895 19.4191C22.2195 19.7791 21.9995 20.1191 21.7095 20.4391C21.2195 20.9791 20.6795 21.3691 20.0695 21.6191C20.0595 21.6191 20.0495 21.6291 20.0395 21.6291C19.4495 21.8691 18.8095 21.9991 18.1195 21.9991C17.0995 21.9991 16.0095 21.7591 14.8595 21.2691C13.7095 20.7791 12.5595 20.1191 11.4195 19.2891C11.0295 18.9991 10.6395 18.7091 10.2695 18.3991L13.5395 15.1291C13.8195 15.3391 14.0695 15.4991 14.2795 15.6091C14.3295 15.6291 14.3895 15.6591 14.4595 15.6891C14.5395 15.7191 14.6195 15.7291 14.7095 15.7291C14.8795 15.7291 15.0095 15.6691 15.1195 15.5591L15.8795 14.8091C16.1295 14.5591 16.3695 14.3691 16.5995 14.2491C16.8295 14.1091 17.0595 14.0391 17.3095 14.0391C17.4995 14.0391 17.6995 14.0791 17.9195 14.1691C18.1395 14.2591 18.3695 14.3891 18.6195 14.5591L21.9295 16.9091C22.1895 17.0891 22.3695 17.2991 22.4795 17.5491C22.5795 17.7991 22.6395 18.0491 22.6395 18.3291Z" fill="white"/>
</svg>
