<svg xmlns="http://www.w3.org/2000/svg" width="430" height="430" style="width:100%;height:100%;transform:translate3d(0,0,0);content-visibility:visible" viewBox="0 0 430 430"><defs><clipPath id="d"><path d="M0 0h430v430H0z"/></clipPath><clipPath id="e"><path d="M0 0h430v430H0z"/></clipPath><clipPath id="l"><path d="M0 0h430v430H0z"/></clipPath><clipPath id="k"><path d="M0 0h430v430H0z"/></clipPath><clipPath id="j"><path d="M0 0h430v430H0z"/></clipPath><clipPath id="i"><path d="M0 0h430v430H0z"/></clipPath><clipPath id="h"><path d="M0 0h430v430H0z"/></clipPath><path id="b" fill="red" d="M400 85H30v240h370z" style="display:block"/><path id="a" fill="red" d="M400 85H30v240h370z" style="display:block"/><path id="c" fill="red" d="M400 85H30v240h370z" style="display:block"/><mask id="m" mask-type="alpha"><use xmlns:a0="http://www.w3.org/1999/xlink" a0:href="#a"/></mask><mask id="g" mask-type="alpha"><use xmlns:a1="http://www.w3.org/1999/xlink" a1:href="#b"/></mask><mask id="f" mask-type="alpha"><use xmlns:a2="http://www.w3.org/1999/xlink" a2:href="#c"/></mask></defs><g clip-path="url(#d)"><g clip-path="url(#e)" style="display:block"><path fill="none" stroke="#393346" stroke-linecap="round" stroke-linejoin="round" stroke-width="7" d="M32.606-30.106 12.394-9.894l-45 40" class="primary" style="display:block" transform="translate(87.606 334.894)"/><path fill="none" stroke="#393346" stroke-linecap="round" stroke-linejoin="round" stroke-width="7" d="M29.794-27.294 15.206-12.706l-45 40" class="primary" style="display:block" transform="matrix(-1 0 0 1 345.206 337.706)"/><path fill="#EBE6EE" d="M-182-120h364a3 3 0 0 1 3 3v234a3 3 0 0 1-3 3h-364a3 3 0 0 1-3-3v-234a3 3 0 0 1 3-3" class="quaternary" style="display:block" transform="translate(215 205)"/><g opacity=".5"><path fill="#EBE6EE" d="M10-120h-20v240h20z" class="quaternary" opacity="1" style="mix-blend-mode:multiply;display:block" transform="translate(40 205)"/></g><g mask="url(#f)" style="display:block"><path fill="#F14B00" d="M528 125a3 3 0 0 0-3 3v114a3 3 0 0 0 3 3h164a3 3 0 0 0 3-3V128a3 3 0 0 0-3-3z" class="quinary"/><path fill="#F14B00" fill-opacity=".5" d="M-42.5 57V-57a3 3 0 0 1 3-3h82V60h-82a3 3 0 0 1-3-3" class="quinary" style="mix-blend-mode:multiply" transform="translate(567.5 185)"/><path fill="#CDA048" d="M408 125a3 3 0 0 0-3 3v54a3 3 0 0 0 3 3h74a3 3 0 0 0 3-3v-54a3 3 0 0 0-3-3z" class="tertiary"/><path fill="#CDA048" fill-opacity=".5" d="M-20 27v-54a3 3 0 0 1 3-3h37v60h-37a3 3 0 0 1-3-3" class="tertiary" style="mix-blend-mode:multiply" transform="translate(425 155)"/><path fill="#0B6A69" d="M408 225a3 3 0 0 0-3 3v54a3 3 0 0 0 3 3h74a3 3 0 0 0 3-3v-54a3 3 0 0 0-3-3z" class="secondary"/><path fill="#0B6A69" fill-opacity=".5" d="M-20 27v-54a3 3 0 0 1 3-3h37v60h-37a3 3 0 0 1-3-3" class="secondary" style="mix-blend-mode:multiply" transform="translate(425 255)"/></g><g mask="url(#g)" style="display:block"><path fill="#EBE6EE" d="m597.5 200 25-15-25-15z" class="quaternary"/><path fill="none" stroke="#EBE6EE" stroke-linejoin="round" stroke-width="5" d="m597.5 200 25-15-25-15z" class="quaternary"/><path fill="none" stroke="#393346" stroke-linecap="round" stroke-linejoin="round" stroke-width="7" d="M525 285h170" class="primary"/></g><g clip-path="url(#h)" style="display:none"><g style="display:none"><path class="tertiary"/><g fill="none"><path class="primary"/><path class="tertiary"/></g></g><g style="display:none"><path class="secondary"/><g fill="none"><path class="primary"/><path class="secondary"/></g></g><path fill="none" class="primary" style="display:none"/><path fill="none" class="primary" style="display:none"/><path fill="none" class="primary" style="display:none"/><path fill="none" class="primary" style="display:none"/><path fill="none" class="primary" style="display:none"/><path fill="none" class="primary" style="display:none"/><path fill="none" class="primary" style="display:none"/></g><g clip-path="url(#i)" style="display:none"><g style="display:none"><path class="tertiary"/><g fill="none"><path class="primary"/><path class="tertiary"/></g></g><g style="display:none"><path class="secondary"/><g fill="none"><path class="primary"/><path class="secondary"/></g></g><path fill="none" class="primary" style="display:none"/><path fill="none" class="primary" style="display:none"/><path fill="none" class="primary" style="display:none"/><path fill="none" class="primary" style="display:none"/><path fill="none" class="primary" style="display:none"/><path fill="none" class="primary" style="display:none"/><path fill="none" class="primary" style="display:none"/></g><g clip-path="url(#j)" style="display:none"><g style="display:none"><path class="tertiary"/><g fill="none"><path class="primary"/><path class="tertiary"/></g></g><g style="display:none"><path class="secondary"/><g fill="none"><path class="primary"/><path class="secondary"/></g></g><path fill="none" class="primary" style="display:none"/><path fill="none" class="primary" style="display:none"/><path fill="none" class="primary" style="display:none"/><path fill="none" class="primary" style="display:none"/><path fill="none" class="primary" style="display:none"/><path fill="none" class="primary" style="display:none"/><path fill="none" class="primary" style="display:none"/></g><g clip-path="url(#k)" style="display:none"><g style="display:none"><path class="tertiary"/><g fill="none"><path class="primary"/><path class="tertiary"/></g></g><g style="display:none"><path class="secondary"/><g fill="none"><path class="primary"/><path class="secondary"/></g></g><path fill="none" class="primary" style="display:none"/><path fill="none" class="primary" style="display:none"/><path fill="none" class="primary" style="display:none"/><path fill="none" class="primary" style="display:none"/><path fill="none" class="primary" style="display:none"/><path fill="none" class="primary" style="display:none"/><path fill="none" class="primary" style="display:none"/></g><g clip-path="url(#l)" mask="url(#m)" style="display:none"><g style="display:none"><path class="tertiary"/><g fill="none"><path class="primary"/><path class="tertiary"/></g></g><g style="display:none"><path class="secondary"/><g fill="none"><path class="primary"/><path class="secondary"/></g></g><path fill="none" class="primary" style="display:none"/><path fill="none" class="primary" style="display:none"/><path fill="none" class="primary" style="display:none"/><path fill="none" class="primary" style="display:none"/><path fill="none" class="primary" style="display:none"/><path fill="none" class="primary" style="display:none"/><path fill="none" class="primary" style="display:none"/></g><g style="display:block"><path fill="#F14B00" d="M193.86 125.04a3 3 0 0 0-3 3V242a3 3 0 0 0 3 3h164a3 3 0 0 0 3-3V128.04a3 3 0 0 0-3-3z" class="quinary"/><path fill="#F14B00" fill-opacity=".5" d="M-42.5 57V-56.96a3 3 0 0 1 3-3h82V60h-82a3 3 0 0 1-3-3" class="quinary" style="mix-blend-mode:multiply" transform="translate(233.36 185)"/><path fill="#CDA048" d="M73.86 125.04a3 3 0 0 0-3 3v53.982a3 3 0 0 0 3 2.999h74a3 3 0 0 0 3-3V128.04a3 3 0 0 0-3-2.999z" class="tertiary"/><path fill="#CDA048" fill-opacity=".5" d="M-20 27.022v-53.983a3 3 0 0 1 3-2.999h37v59.98h-37a3 3 0 0 1-3-2.998" class="tertiary" style="mix-blend-mode:multiply" transform="translate(90.86 155)"/><path fill="#0B6A69" d="M73.86 225.02a3 3 0 0 0-3 3V282a3 3 0 0 0 3 3h74a3 3 0 0 0 3-3v-53.98a3 3 0 0 0-3-3z" class="secondary"/><path fill="#0B6A69" fill-opacity=".5" d="M-20 27v-53.98a3 3 0 0 1 3-3h37V30h-37a3 3 0 0 1-3-3" class="secondary" style="mix-blend-mode:multiply" transform="translate(90.86 255)"/></g><g mask="url(#g)" style="display:block"><path fill="#EBE6EE" d="m262.482 200.012 24.992-14.995-24.992-14.996z" class="quaternary"/><path fill="none" stroke="#EBE6EE" stroke-linejoin="round" stroke-width="5" d="m262.482 200.012 24.992-14.995-24.992-14.996z" class="quaternary"/><path fill="none" stroke="#393346" stroke-linecap="round" stroke-linejoin="round" stroke-width="7" d="M190 285h169.937" class="primary"/></g><path fill="#393346" d="M185-117a3 3 0 0 0-3-3h-364a3 3 0 0 0-3 3v234a3 3 0 0 0 3 3h364a3 3 0 0 0 3-3zm-360 7h350v220h-350z" class="primary" style="display:block" transform="translate(215 205)"/></g></g></svg>