<svg xmlns="http://www.w3.org/2000/svg" width="430" height="430" style="width:100%;height:100%;transform:translate3d(0,0,0);content-visibility:visible" viewBox="0 0 430 430"><defs><clipPath id="a"><path d="M0 0h430v430H0z"/></clipPath><clipPath id="d"><path d="M0 0h430v430H0z"/></clipPath><clipPath id="c"><path d="M0 0h430v430H0z"/></clipPath><clipPath id="b"><path d="M0 0h430v430H0z"/></clipPath></defs><g clip-path="url(#a)"><g clip-path="url(#b)" style="display:none"><path class="primary" style="display:none"/><path class="primary" style="mix-blend-mode:multiply;display:none"/><path class="secondary" style="display:none"/><path class="secondary" style="mix-blend-mode:multiply;display:none"/><path class="primary" style="display:none"/></g><g clip-path="url(#c)" style="display:block"><path fill="#F9F8D1" d="M-178.379-1.263c-1.502.697-1.502 1.829 0 2.526L-2.72 82.787c1.502.697 3.94.697 5.442 0L178.38 1.263c1.502-.697 1.502-1.829 0-2.526L2.72-82.787c-1.502-.697-3.94-.697-5.442 0z" class="primary" style="display:block" transform="translate(215.034 259.5)"/><g opacity=".5"><path fill="#F9F8D1" d="M0 73.3-157.937 0 0-73.3 157.937 0z" class="primary" opacity="1" style="mix-blend-mode:multiply;display:block" transform="translate(215.033 249.75)"/></g><g style="display:block"><path fill="#F9F8D1" d="M36.655 214.237c-1.502.697-1.502 1.829 0 2.526l175.658 81.524c1.502.697 3.94.697 5.442 0l175.658-81.524c1.502-.697 1.502-1.829 0-2.526l-175.658-81.524c-1.502-.697-3.94-.697-5.442 0z" class="primary"/><path fill="#0B6A69" d="M36.655 214.237c-1.502.697-1.502 1.829 0 2.526l175.658 81.524c1.502.697 3.94.697 5.442 0l175.658-81.524c1.502-.697 1.502-1.829 0-2.526l-175.658-81.524c-1.502-.697-3.94-.697-5.442 0z" class="secondary"/></g><g opacity=".5" style="mix-blend-mode:multiply;display:block"><path fill="#0B6A69" d="m215.033 278.05-157.937-73.3 157.937-73.3 157.937 73.3z" class="secondary" opacity="1"/><path fill="none" d="m215.033 278.05-157.937-73.3 157.937-73.3 157.937 73.3z" class="primary" opacity="1"/></g><g style="display:block"><path fill="none" d="M36.586 170.237c-1.502.697-1.502 1.829 0 2.526l175.658 81.524c1.502.697 3.94.697 5.442 0l175.658-81.524c1.502-.697 1.502-1.829 0-2.526L217.686 88.713c-1.502-.697-3.94-.697-5.442 0z" class="secondary"/><path fill="#F9F8D1" d="M36.586 170.237c-1.502.697-1.502 1.829 0 2.526l175.658 81.524c1.502.697 3.94.697 5.442 0l175.658-81.524c1.502-.697 1.502-1.829 0-2.526L217.686 88.713c-1.502-.697-3.94-.697-5.442 0z" class="primary"/></g><g opacity=".5"><path fill="none" d="m-.507 34.923-116.987-54.294L-.507-73.666 116.48-19.371z" class="secondary" opacity="1" style="mix-blend-mode:multiply;display:block" transform="translate(214.965 160.625)"/></g><g opacity="0"><path fill="#F9F8D1" d="M-85.728-1.263c-1.502.697-1.502 1.829 0 2.526L-2.72 39.787c1.502.697 3.94.697 5.442 0L85.728 1.263c1.502-.697 1.502-1.829 0-2.526L2.72-39.787c-1.502-.697-3.94-.697-5.442 0z" class="primary" opacity="1" style="display:block" transform="translate(214.965 56.5)"/></g></g><g clip-path="url(#d)" style="display:none"><path class="primary" style="display:none"/><path class="primary" style="mix-blend-mode:multiply;display:none"/><path class="secondary" style="display:none"/><path class="secondary" style="mix-blend-mode:multiply;display:none"/><path class="primary" style="display:none"/></g></g></svg>