<svg width="25" height="24" viewBox="0 0 25 24" fill="none" xmlns="http://www.w3.org/2000/svg">
<path d="M17.332 3.5H7.33203C4.33203 3.5 2.33203 5 2.33203 8.5V15.5C2.33203 19 4.33203 20.5 7.33203 20.5H17.332C20.332 20.5 22.332 19 22.332 15.5V8.5C22.332 5 20.332 3.5 17.332 3.5ZM17.802 9.59L14.672 12.09C14.012 12.62 13.172 12.88 12.332 12.88C11.492 12.88 10.642 12.62 9.99203 12.09L6.86203 9.59C6.54203 9.33 6.49203 8.85 6.74203 8.53C7.00203 8.21 7.47203 8.15 7.79203 8.41L10.922 10.91C11.682 11.52 12.972 11.52 13.732 10.91L16.862 8.41C17.182 8.15 17.662 8.2 17.912 8.53C18.172 8.85 18.122 9.33 17.802 9.59Z" fill="white"/>
</svg>
