<svg width="96" height="96" viewBox="0 0 96 96" fill="none" xmlns="http://www.w3.org/2000/svg">
<circle cx="47.9986" cy="47.8736" r="47.8736" fill="#E7F0F0"/>
<circle cx="48.0407" cy="47.9157" r="31.9157" fill="#12161C"/>
<path d="M43.793 53.6297H51.4783V57H37.9716V54.3191L44.8654 47.8083C46.4484 46.3018 46.7293 45.3827 46.7293 44.5146C46.7293 43.1103 45.759 42.2932 43.8696 42.2932C42.3377 42.2932 41.0355 42.8805 40.1674 44.0805L37.1546 42.14C38.5333 40.123 41.0355 38.8208 44.2526 38.8208C48.2357 38.8208 50.8911 40.8634 50.8911 44.106C50.8911 45.8423 50.406 47.4253 47.9038 49.7487L43.793 53.6297ZM55.7834 57.2043C54.4046 57.2043 53.3067 56.1574 53.3067 54.7021C53.3067 53.2212 54.4046 52.2509 55.7834 52.2509C57.1621 52.2509 58.26 53.2212 58.26 54.7021C58.26 56.1574 57.1621 57.2043 55.7834 57.2043Z" fill="#E7F0F0"/>
</svg>
