<svg width="96" height="96" viewBox="0 0 96 96" fill="none" xmlns="http://www.w3.org/2000/svg">
<circle cx="47.9986" cy="47.8736" r="47.8736" fill="#E7F0F0"/>
<circle cx="48.0407" cy="47.9157" r="31.9157" fill="#12161C"/>
<path d="M46.5737 46.404C49.7908 46.9146 51.4249 48.9062 51.4249 51.536C51.4249 54.5489 49.1014 57.3064 44.0204 57.3064C41.5182 57.3064 38.9394 56.617 37.2032 55.3914L38.8118 52.2254C40.165 53.2467 42.0544 53.834 43.9183 53.834C45.9864 53.834 47.2631 52.9914 47.2631 51.536C47.2631 50.1828 46.2673 49.3402 43.9183 49.3402H42.0289V46.6082L45.7056 42.4464H38.0969V39.1272H50.6078V41.8081L46.5737 46.404ZM55.6836 57.2043C54.3049 57.2043 53.207 56.1574 53.207 54.7021C53.207 53.2212 54.3049 52.2509 55.6836 52.2509C57.0624 52.2509 58.1603 53.2212 58.1603 54.7021C58.1603 56.1574 57.0624 57.2043 55.6836 57.2043Z" fill="#E7F0F0"/>
</svg>
