<svg width="96" height="97" viewBox="0 0 96 97" fill="none" xmlns="http://www.w3.org/2000/svg">
<circle cx="47.9986" cy="48.6207" r="47.8736" fill="#E7F0F0"/>
<circle cx="48.0407" cy="48.6628" r="31.9157" fill="#12161C"/>
<path d="M44.315 46.8423C49.6002 46.8423 51.6939 49.2168 51.6939 52.3828C51.6939 55.5489 49.3704 58.3064 44.2639 58.3064C41.7872 58.3064 39.1829 57.617 37.4467 56.3914L39.0808 53.2254C40.434 54.2467 42.2979 54.834 44.1618 54.834C46.2299 54.834 47.5065 53.9658 47.5065 52.5105C47.5065 51.1062 46.5874 50.187 43.3447 50.187H38.7744L39.6936 40.1272H50.596V43.4464H43.1405L42.8596 46.8423H44.315ZM55.721 58.2043C54.3423 58.2043 53.2444 57.1574 53.2444 55.7021C53.2444 54.2212 54.3423 53.2509 55.721 53.2509C57.0998 53.2509 58.1977 54.2212 58.1977 55.7021C58.1977 57.1574 57.0998 58.2043 55.721 58.2043Z" fill="#E7F0F0"/>
</svg>
