<svg width="96" height="97" viewBox="0 0 96 97" fill="none" xmlns="http://www.w3.org/2000/svg">
<circle cx="47.9986" cy="48.6207" r="47.8736" fill="#E7F0F0"/>
<circle cx="48.0407" cy="48.6628" r="31.9157" fill="#12161C"/>
<path d="M46.1309 46.7912C49.5778 46.7912 52.2842 48.987 52.2842 52.3573C52.2842 56.0085 49.2969 58.3064 45.5181 58.3064C40.5903 58.3064 37.5264 55.2169 37.5264 49.4466C37.5264 43.2677 41.2541 39.8208 46.6415 39.8208C48.5309 39.8208 50.3693 40.2548 51.6204 41.0464L50.0884 44.0847C49.0926 43.4209 47.9437 43.1911 46.7436 43.1911C43.7563 43.1911 41.8414 44.9528 41.7137 48.3742C42.7606 47.3274 44.267 46.7912 46.1309 46.7912ZM45.2883 55.2169C47.05 55.2169 48.2756 54.1956 48.2756 52.5616C48.2756 50.9275 47.0756 49.8806 45.2372 49.8806C43.4244 49.8806 42.1478 51.0041 42.1478 52.5616C42.1478 54.0935 43.2967 55.2169 45.2883 55.2169ZM56.3818 58.2043C55.003 58.2043 53.9051 57.1574 53.9051 55.7021C53.9051 54.2212 55.003 53.2509 56.3818 53.2509C57.7606 53.2509 58.8585 54.2212 58.8585 55.7021C58.8585 57.1574 57.7606 58.2043 56.3818 58.2043Z" fill="#E7F0F0"/>
</svg>
