<svg width="96" height="97" viewBox="0 0 96 97" fill="none" xmlns="http://www.w3.org/2000/svg">
<circle cx="47.9986" cy="48.6207" r="47.8736" fill="#E7F0F0"/>
<circle cx="48.0407" cy="48.6628" r="31.9157" fill="#12161C"/>
<path d="M49.4573 48.604C51.1935 49.4721 52.1893 50.9019 52.1893 52.8169C52.1893 56.1872 49.1764 58.3064 44.6316 58.3064C40.1124 58.3064 37.125 56.1872 37.125 52.8169C37.125 50.9019 38.1208 49.4721 39.8315 48.604C38.5038 47.787 37.7634 46.5359 37.7634 44.9273C37.7634 41.7868 40.5719 39.8208 44.6316 39.8208C48.7424 39.8208 51.551 41.7868 51.551 44.9273C51.551 46.5359 50.785 47.787 49.4573 48.604ZM44.6316 42.8592C42.972 42.8592 41.8741 43.7017 41.8741 45.106C41.8741 46.4593 42.9465 47.3018 44.6316 47.3018C46.3423 47.3018 47.4402 46.4593 47.4402 45.106C47.4402 43.7017 46.3168 42.8592 44.6316 42.8592ZM44.6316 55.268C46.6998 55.268 48.0019 54.2722 48.0019 52.6892C48.0019 51.1062 46.6998 50.136 44.6316 50.136C42.589 50.136 41.3124 51.1062 41.3124 52.6892C41.3124 54.2722 42.589 55.268 44.6316 55.268ZM56.681 58.2043C55.3023 58.2043 54.2044 57.1574 54.2044 55.7021C54.2044 54.2212 55.3023 53.2509 56.681 53.2509C58.0598 53.2509 59.1577 54.2212 59.1577 55.7021C59.1577 57.1574 58.0598 58.2043 56.681 58.2043Z" fill="#E7F0F0"/>
</svg>
