<svg width="72" height="72" viewBox="0 0 72 72" fill="none" xmlns="http://www.w3.org/2000/svg">
<path d="M42.3951 34.0216C43.5651 29.1016 39.2751 24.8116 34.3551 25.9816C32.0451 26.5516 30.1551 28.4416 29.5851 30.7516C28.4151 35.6716 32.7051 39.9616 37.6251 38.7916C39.9651 38.2216 41.8551 36.3316 42.3951 34.0216Z" fill="#5E7F4C"/>
<path d="M18.0628 53.91C17.5228 53.91 16.9528 53.7 16.5328 53.31C10.7128 47.91 7.38281 40.29 7.38281 32.37C7.38281 16.59 20.2228 3.75 36.0028 3.75C51.7828 3.75 64.6228 16.59 64.6228 32.37C64.6228 40.35 61.4128 47.73 55.5928 53.22C54.6928 54.06 53.2528 54.03 52.4128 53.13C51.5728 52.23 51.6028 50.79 52.5028 49.95C57.4228 45.33 60.1228 39.12 60.1228 32.4C60.1228 19.11 49.2928 8.28 36.0028 8.28C22.7128 8.28 11.8828 19.11 11.8828 32.4C11.8828 39.18 14.6128 45.42 19.5928 50.04C20.4928 50.88 20.5528 52.32 19.7128 53.22C19.2628 53.67 18.6628 53.91 18.0628 53.91Z" fill="#5E7F4C"/>
<path d="M47.9986 45.9016C47.4586 45.9016 46.8886 45.6916 46.4686 45.3016C45.5686 44.4616 45.5086 43.0216 46.3786 42.1216C48.8686 39.4816 50.2486 36.0016 50.2486 32.4016C50.2486 24.5416 43.8586 18.1816 36.0286 18.1816C28.1986 18.1816 21.8086 24.5716 21.8086 32.4016C21.8086 36.0316 23.1886 39.4816 25.6786 42.1216C26.5186 43.0216 26.4886 44.4616 25.5886 45.3016C24.6886 46.1716 23.2486 46.1116 22.4086 45.2116C19.1386 41.7316 17.3086 37.1716 17.3086 32.4016C17.3086 22.0816 25.7086 13.6816 36.0286 13.6816C46.3486 13.6816 54.7486 22.0816 54.7486 32.4016C54.7486 37.1716 52.9486 41.7316 49.6486 45.2116C49.1986 45.6616 48.5986 45.9016 47.9986 45.9016Z" fill="#5E7F4C"/>
<path d="M30.8967 49.98L26.5767 55.35C23.1567 59.64 26.2167 66 31.6767 66H40.2867C45.7767 66 48.8367 59.64 45.3867 55.38L41.0667 50.01C38.4867 46.71 33.5067 46.71 30.8967 49.98Z" fill="#5E7F4C"/>
</svg>
