<svg width="72" height="72" viewBox="0 0 72 72" fill="none" xmlns="http://www.w3.org/2000/svg">
<path d="M63 68.25H9C7.77 68.25 6.75 67.23 6.75 66C6.75 64.77 7.77 63.75 9 63.75H63C64.23 63.75 65.25 64.77 65.25 66C65.25 67.23 64.23 68.25 63 68.25Z" fill="#5E7F4C"/>
<path d="M16.8 25.1426H12C10.35 25.1426 9 26.4926 9 28.1426V54.0026C9 55.6526 10.35 57.0026 12 57.0026H16.8C18.45 57.0026 19.8 55.6526 19.8 54.0026V28.1426C19.8 26.4626 18.45 25.1426 16.8 25.1426Z" fill="#5E7F4C"/>
<path d="M38.3977 15.5684H33.5977C31.9477 15.5684 30.5977 16.9184 30.5977 18.5684V53.9984C30.5977 55.6484 31.9477 56.9984 33.5977 56.9984H38.3977C40.0477 56.9984 41.3977 55.6484 41.3977 53.9984V18.5684C41.3977 16.9184 40.0477 15.5684 38.3977 15.5684Z" fill="#5E7F4C"/>
<path d="M59.9953 6H55.1953C53.5453 6 52.1953 7.35 52.1953 9V54C52.1953 55.65 53.5453 57 55.1953 57H59.9953C61.6453 57 62.9953 55.65 62.9953 54V9C62.9953 7.35 61.6453 6 59.9953 6Z" fill="#5E7F4C"/>
</svg>
