<svg width="72" height="72" viewBox="0 0 72 72" fill="none" xmlns="http://www.w3.org/2000/svg">
<path d="M56.4258 18.7514H60.5058C59.9358 17.9414 59.3358 17.1914 58.7058 16.4414L56.4258 18.7514Z" fill="#5E7F4C"/>
<path d="M55.56 13.2609C54.81 12.6309 54.06 12.0309 53.25 11.4609V15.5409L55.56 13.2609Z" fill="#5E7F4C"/>
<path d="M58.7386 16.4384L67.5886 7.58836C68.4586 6.71836 68.4586 5.27836 67.5886 4.40836C66.7186 3.53836 65.2786 3.53836 64.4086 4.40836L55.5586 13.2584C56.6986 14.2484 57.7486 15.3284 58.7386 16.4384Z" fill="#5E7F4C"/>
<path d="M53.2552 9C53.2552 7.77 52.2352 6.75 51.0052 6.75C49.8052 6.75 48.8452 7.71 48.7852 8.88C50.3452 9.63 51.8452 10.47 53.2552 11.46V9Z" fill="#5E7F4C"/>
<path d="M65.2556 21C65.2556 19.77 64.2356 18.75 63.0056 18.75H60.5156C61.5056 20.16 62.3756 21.66 63.0956 23.22C64.2956 23.16 65.2556 22.2 65.2556 21Z" fill="#5E7F4C"/>
<path d="M38.25 44.2523H39.15C40.32 44.2523 41.25 43.2023 41.25 41.9123C41.25 40.2923 40.8 40.0523 39.78 39.6923L38.25 39.1523V44.2523Z" fill="#5E7F4C"/>
<path d="M63.12 23.22C63.09 23.22 63.06 23.25 63 23.25H51C50.7 23.25 50.43 23.19 50.13 23.07C49.59 22.83 49.14 22.41 48.9 21.84C48.81 21.57 48.75 21.3 48.75 21V9C48.75 8.97 48.78 8.94 48.78 8.88C44.88 7.05 40.56 6 36 6C19.44 6 6 19.44 6 36C6 52.56 19.44 66 36 66C52.56 66 66 52.56 66 36C66 31.44 64.95 27.12 63.12 23.22ZM41.25 35.46C43.17 36.12 45.75 37.53 45.75 41.94C45.75 45.69 42.78 48.78 39.15 48.78H38.25V49.53C38.25 50.76 37.23 51.78 36 51.78C34.77 51.78 33.75 50.76 33.75 49.53V48.78H33.51C29.52 48.78 26.25 45.42 26.25 41.28C26.25 40.02 27.27 39 28.5 39C29.73 39 30.75 40.02 30.75 41.25C30.75 42.9 31.98 44.25 33.51 44.25H33.75V37.59L30.75 36.54C28.83 35.88 26.25 34.47 26.25 30.06C26.25 26.31 29.22 23.22 32.85 23.22H33.75V22.5C33.75 21.27 34.77 20.25 36 20.25C37.23 20.25 38.25 21.27 38.25 22.5V23.25H38.49C42.48 23.25 45.75 26.61 45.75 30.75C45.75 31.98 44.73 33 43.5 33C42.27 33 41.25 31.98 41.25 30.75C41.25 29.1 40.02 27.75 38.49 27.75H38.25V34.41L41.25 35.46Z" fill="#5E7F4C"/>
<path d="M30.75 30.09C30.75 31.71 31.2 31.95 32.22 32.31L33.75 32.85V27.75H32.85C31.71 27.75 30.75 28.8 30.75 30.09Z" fill="#5E7F4C"/>
</svg>
