<svg width="72" height="72" viewBox="0 0 72 72" fill="none" xmlns="http://www.w3.org/2000/svg">
<path d="M27 6C19.14 6 12.75 12.39 12.75 20.25C12.75 27.96 18.78 34.2 26.64 34.47C26.88 34.44 27.12 34.44 27.3 34.47C27.36 34.47 27.39 34.47 27.45 34.47C27.48 34.47 27.48 34.47 27.51 34.47C35.19 34.2 41.22 27.96 41.25 20.25C41.25 12.39 34.86 6 27 6Z" fill="#5E7F4C"/>
<path d="M42.2428 42.4526C33.8728 36.8726 20.2228 36.8726 11.7928 42.4526C7.98281 45.0026 5.88281 48.4526 5.88281 52.1426C5.88281 55.8326 7.98281 59.2526 11.7628 61.7726C15.9628 64.5926 21.4828 66.0026 27.0028 66.0026C32.5228 66.0026 38.0428 64.5926 42.2428 61.7726C46.0228 59.2226 48.1228 55.8026 48.1228 52.0826C48.0928 48.3926 46.0228 44.9726 42.2428 42.4526Z" fill="#5E7F4C"/>
<path d="M59.9681 22.0203C60.4481 27.8403 56.3081 32.9403 50.5781 33.6303C50.5481 33.6303 50.5481 33.6303 50.5181 33.6303H50.4281C50.2481 33.6303 50.0681 33.6303 49.9181 33.6903C47.0081 33.8403 44.3381 32.9103 42.3281 31.2003C45.4181 28.4403 47.1881 24.3003 46.8281 19.8003C46.6181 17.3703 45.7781 15.1503 44.5181 13.2603C45.6581 12.6903 46.9781 12.3303 48.3281 12.2103C54.2081 11.7003 59.4581 16.0803 59.9681 22.0203Z" fill="#5E7F4C"/>
<path d="M65.9648 49.7712C65.7248 52.6812 63.8648 55.2012 60.7448 56.9112C57.7448 58.5612 53.9648 59.3412 50.2148 59.2512C52.3748 57.3012 53.6348 54.8712 53.8748 52.2912C54.1748 48.5712 52.4048 45.0012 48.8648 42.1512C46.8548 40.5612 44.5148 39.3012 41.9648 38.3712C48.5948 36.4512 56.9348 37.7412 62.0648 41.8812C64.8248 44.1012 66.2348 46.8912 65.9648 49.7712Z" fill="#5E7F4C"/>
</svg>
