<svg width="72" height="72" viewBox="0 0 72 72" fill="none" xmlns="http://www.w3.org/2000/svg">
<path d="M47.34 6H24.66C13.32 6 10.5 9.03 10.5 21.12V54.9C10.5 62.88 14.88 64.77 20.19 59.07L20.22 59.04C22.68 56.43 26.43 56.64 28.56 59.49L31.59 63.54C34.02 66.75 37.95 66.75 40.38 63.54L43.41 59.49C45.57 56.61 49.32 56.4 51.78 59.04C57.12 64.74 61.47 62.85 61.47 54.87V21.12C61.5 9.03 58.68 6 47.34 6ZM23.34 36C21.69 36 20.34 34.65 20.34 33C20.34 31.35 21.69 30 23.34 30C24.99 30 26.34 31.35 26.34 33C26.34 34.65 24.99 36 23.34 36ZM23.34 24C21.69 24 20.34 22.65 20.34 21C20.34 19.35 21.69 18 23.34 18C24.99 18 26.34 19.35 26.34 21C26.34 22.65 24.99 24 23.34 24ZM48.69 35.25H32.19C30.96 35.25 29.94 34.23 29.94 33C29.94 31.77 30.96 30.75 32.19 30.75H48.69C49.92 30.75 50.94 31.77 50.94 33C50.94 34.23 49.92 35.25 48.69 35.25ZM48.69 23.25H32.19C30.96 23.25 29.94 22.23 29.94 21C29.94 19.77 30.96 18.75 32.19 18.75H48.69C49.92 18.75 50.94 19.77 50.94 21C50.94 22.23 49.92 23.25 48.69 23.25Z" fill="#5E7F4C"/>
</svg>
