<svg width="72" height="72" viewBox="0 0 72 72" fill="none" xmlns="http://www.w3.org/2000/svg">
<path d="M34.5 6C18.78 6 6 18.78 6 34.5C6 50.22 18.78 63 34.5 63C50.22 63 63 50.22 63 34.5C63 18.78 50.22 6 34.5 6ZM34.5 41.25H25.5C24.27 41.25 23.25 40.23 23.25 39C23.25 37.77 24.27 36.75 25.5 36.75H34.5C35.73 36.75 36.75 37.77 36.75 39C36.75 40.23 35.73 41.25 34.5 41.25ZM43.5 32.25H25.5C24.27 32.25 23.25 31.23 23.25 30C23.25 28.77 24.27 27.75 25.5 27.75H43.5C44.73 27.75 45.75 28.77 45.75 30C45.75 31.23 44.73 32.25 43.5 32.25Z" fill="#5E7F4C"/>
<path d="M63.9075 65.9958C63.3675 65.9958 62.8275 65.7858 62.4375 65.3958L56.8575 59.8158C56.0475 59.0058 56.0475 57.6858 56.8575 56.8458C57.6675 56.0358 58.9875 56.0358 59.8275 56.8458L65.4075 62.4258C66.2175 63.2358 66.2175 64.5558 65.4075 65.3958C64.9875 65.7858 64.4475 65.9958 63.9075 65.9958Z" fill="#5E7F4C"/>
</svg>
