<svg width="72" height="72" viewBox="0 0 72 72" fill="none" xmlns="http://www.w3.org/2000/svg">
<path d="M48.57 6H23.43C12.51 6 6 12.51 6 23.43V48.54C6 59.49 12.51 66 23.43 66H48.54C59.46 66 65.97 59.49 65.97 48.57V23.43C66 12.51 59.49 6 48.57 6ZM22.89 54.45C22.89 55.68 21.87 56.7 20.64 56.7C19.41 56.7 18.39 55.68 18.39 54.45V48.24C18.39 47.01 19.41 45.99 20.64 45.99C21.87 45.99 22.89 47.01 22.89 48.24V54.45ZM38.25 54.45C38.25 55.68 37.23 56.7 36 56.7C34.77 56.7 33.75 55.68 33.75 54.45V42C33.75 40.77 34.77 39.75 36 39.75C37.23 39.75 38.25 40.77 38.25 42V54.45ZM53.61 54.45C53.61 55.68 52.59 56.7 51.36 56.7C50.13 56.7 49.11 55.68 49.11 54.45V35.79C49.11 34.56 50.13 33.54 51.36 33.54C52.59 33.54 53.61 34.56 53.61 35.79V54.45ZM53.61 26.31C53.61 27.54 52.59 28.56 51.36 28.56C50.13 28.56 49.11 27.54 49.11 26.31V23.4C41.46 31.26 31.89 36.81 21.18 39.48C21 39.54 20.82 39.54 20.64 39.54C19.62 39.54 18.72 38.85 18.45 37.83C18.15 36.63 18.87 35.4 20.1 35.1C30.21 32.58 39.21 27.27 46.35 19.77H42.6C41.37 19.77 40.35 18.75 40.35 17.52C40.35 16.29 41.37 15.27 42.6 15.27H51.39C51.51 15.27 51.6 15.33 51.72 15.33C51.87 15.36 52.02 15.36 52.17 15.42C52.32 15.48 52.44 15.57 52.59 15.66C52.68 15.72 52.77 15.75 52.86 15.81C52.89 15.84 52.89 15.87 52.92 15.87C53.04 15.99 53.13 16.11 53.22 16.23C53.31 16.35 53.4 16.44 53.43 16.56C53.49 16.68 53.49 16.8 53.52 16.95C53.55 17.1 53.61 17.25 53.61 17.43C53.61 17.46 53.64 17.49 53.64 17.52V26.31H53.61Z" fill="#5E7F4C"/>
</svg>
