<svg width="72" height="72" viewBox="0 0 72 72" fill="none" xmlns="http://www.w3.org/2000/svg">
<path d="M64.6767 32.2216L60.5967 27.4816C59.8167 26.5816 59.1867 24.9016 59.1867 23.7016V18.6016C59.1867 15.4216 56.5767 12.8116 53.3967 12.8116H48.2967C47.1267 12.8116 45.4167 12.1816 44.5167 11.4016L39.7767 7.32164C37.7067 5.55164 34.3167 5.55164 32.2167 7.32164L27.5067 11.4316C26.6067 12.1816 24.8967 12.8116 23.7267 12.8116H18.5367C15.3567 12.8116 12.7467 15.4216 12.7467 18.6016V23.7316C12.7467 24.9016 12.1167 26.5816 11.3667 27.4816L7.31672 32.2516C5.57672 34.3216 5.57672 37.6816 7.31672 39.7516L11.3667 44.5216C12.1167 45.4216 12.7467 47.1016 12.7467 48.2716V53.4016C12.7467 56.5816 15.3567 59.1916 18.5367 59.1916H23.7267C24.8967 59.1916 26.6067 59.8216 27.5067 60.6016L32.2467 64.6816C34.3167 66.4516 37.7067 66.4516 39.8067 64.6816L44.5467 60.6016C45.4467 59.8216 47.1267 59.1916 48.3267 59.1916H53.4267C56.6067 59.1916 59.2167 56.5816 59.2167 53.4016V48.3016C59.2167 47.1316 59.8467 45.4216 60.6267 44.5216L64.7067 39.7816C66.4467 37.7116 66.4467 34.2916 64.6767 32.2216ZM48.4767 30.3316L33.9867 44.8216C33.5667 45.2416 32.9967 45.4816 32.3967 45.4816C31.7967 45.4816 31.2267 45.2416 30.8067 44.8216L23.5467 37.5616C22.6767 36.6916 22.6767 35.2516 23.5467 34.3816C24.4167 33.5116 25.8567 33.5116 26.7267 34.3816L32.3967 40.0516L45.2967 27.1516C46.1667 26.2816 47.6067 26.2816 48.4767 27.1516C49.3467 28.0216 49.3467 29.4616 48.4767 30.3316Z" fill="#5E7F4C"/>
</svg>
